<svg width="1920" height="420" viewBox="0 0 1920 420" fill="none" xmlns="http://www.w3.org/2000/svg">
<rect x="-60" y="2" width="136" height="136" stroke="#DDCDB5" stroke-width="4"/>
<rect x="-38" y="24" width="92" height="92" stroke="#DDCDB5" stroke-width="4"/>
<rect x="-17" y="45" width="50" height="50" stroke="#DDCDB5" stroke-width="4"/>
<circle cx="148" cy="70" r="68" stroke="#DDCDB5" stroke-width="4"/>
<circle cx="148" cy="70" r="46" stroke="#DDCDB5" stroke-width="4"/>
<circle cx="148" cy="70" r="25" stroke="#DDCDB5" stroke-width="4"/>
<rect x="220" y="2" width="136" height="136" stroke="#DDCDB5" stroke-width="4"/>
<rect x="242" y="24" width="92" height="92" stroke="#DDCDB5" stroke-width="4"/>
<rect x="263" y="45" width="50" height="50" stroke="#DDCDB5" stroke-width="4"/>
<circle cx="428" cy="70" r="68" stroke="#DDCDB5" stroke-width="4"/>
<circle cx="428" cy="70" r="46" stroke="#DDCDB5" stroke-width="4"/>
<circle cx="428" cy="70" r="25" stroke="#DDCDB5" stroke-width="4"/>
<rect x="500" y="2" width="136" height="136" stroke="#DDCDB5" stroke-width="4"/>
<rect x="522" y="24" width="92" height="92" stroke="#DDCDB5" stroke-width="4"/>
<rect x="543" y="45" width="50" height="50" stroke="#DDCDB5" stroke-width="4"/>
<circle cx="708" cy="70" r="68" stroke="#DDCDB5" stroke-width="4"/>
<circle cx="708" cy="70" r="46" stroke="#DDCDB5" stroke-width="4"/>
<circle cx="708" cy="70" r="25" stroke="#DDCDB5" stroke-width="4"/>
<rect x="780" y="2" width="136" height="136" stroke="#DDCDB5" stroke-width="4"/>
<rect x="802" y="24" width="92" height="92" stroke="#DDCDB5" stroke-width="4"/>
<rect x="823" y="45" width="50" height="50" stroke="#DDCDB5" stroke-width="4"/>
<circle cx="988" cy="70" r="68" stroke="#DDCDB5" stroke-width="4"/>
<circle cx="988" cy="70" r="46" stroke="#DDCDB5" stroke-width="4"/>
<circle cx="988" cy="70" r="25" stroke="#DDCDB5" stroke-width="4"/>
<rect x="1060" y="2" width="136" height="136" stroke="#DDCDB5" stroke-width="4"/>
<rect x="1082" y="24" width="92" height="92" stroke="#DDCDB5" stroke-width="4"/>
<rect x="1103" y="45" width="50" height="50" stroke="#DDCDB5" stroke-width="4"/>
<circle cx="1268" cy="70" r="68" stroke="#DDCDB5" stroke-width="4"/>
<circle cx="1268" cy="70" r="46" stroke="#DDCDB5" stroke-width="4"/>
<circle cx="1268" cy="70" r="25" stroke="#DDCDB5" stroke-width="4"/>
<rect x="1340" y="2" width="136" height="136" stroke="#DDCDB5" stroke-width="4"/>
<rect x="1362" y="24" width="92" height="92" stroke="#DDCDB5" stroke-width="4"/>
<rect x="1383" y="45" width="50" height="50" stroke="#DDCDB5" stroke-width="4"/>
<circle cx="1548" cy="70" r="68" stroke="#DDCDB5" stroke-width="4"/>
<circle cx="1548" cy="70" r="46" stroke="#DDCDB5" stroke-width="4"/>
<circle cx="1548" cy="70" r="25" stroke="#DDCDB5" stroke-width="4"/>
<rect x="1620" y="2" width="136" height="136" stroke="#DDCDB5" stroke-width="4"/>
<rect x="1642" y="24" width="92" height="92" stroke="#DDCDB5" stroke-width="4"/>
<rect x="1663" y="45" width="50" height="50" stroke="#DDCDB5" stroke-width="4"/>
<circle cx="1828" cy="70" r="68" stroke="#DDCDB5" stroke-width="4"/>
<circle cx="1828" cy="70" r="46" stroke="#DDCDB5" stroke-width="4"/>
<circle cx="1828" cy="70" r="25" stroke="#DDCDB5" stroke-width="4"/>
<rect x="1900" y="2" width="136" height="136" stroke="#DDCDB5" stroke-width="4"/>
<rect x="-60" y="282" width="136" height="136" stroke="#DDCDB5" stroke-width="4"/>
<rect x="-38" y="304" width="92" height="92" stroke="#DDCDB5" stroke-width="4"/>
<rect x="-17" y="325" width="50" height="50" stroke="#DDCDB5" stroke-width="4"/>
<circle cx="148" cy="350" r="68" stroke="#DDCDB5" stroke-width="4"/>
<circle cx="148" cy="350" r="46" stroke="#DDCDB5" stroke-width="4"/>
<circle cx="148" cy="350" r="25" stroke="#DDCDB5" stroke-width="4"/>
<rect x="220" y="282" width="136" height="136" stroke="#DDCDB5" stroke-width="4"/>
<rect x="242" y="304" width="92" height="92" stroke="#DDCDB5" stroke-width="4"/>
<rect x="263" y="325" width="50" height="50" stroke="#DDCDB5" stroke-width="4"/>
<circle cx="428" cy="350" r="68" stroke="#DDCDB5" stroke-width="4"/>
<circle cx="428" cy="350" r="46" stroke="#DDCDB5" stroke-width="4"/>
<circle cx="428" cy="350" r="25" stroke="#DDCDB5" stroke-width="4"/>
<rect x="500" y="282" width="136" height="136" stroke="#DDCDB5" stroke-width="4"/>
<rect x="522" y="304" width="92" height="92" stroke="#DDCDB5" stroke-width="4"/>
<rect x="543" y="325" width="50" height="50" stroke="#DDCDB5" stroke-width="4"/>
<circle cx="708" cy="350" r="68" stroke="#DDCDB5" stroke-width="4"/>
<circle cx="708" cy="350" r="46" stroke="#DDCDB5" stroke-width="4"/>
<circle cx="708" cy="350" r="25" stroke="#DDCDB5" stroke-width="4"/>
<rect x="780" y="282" width="136" height="136" stroke="#DDCDB5" stroke-width="4"/>
<rect x="802" y="304" width="92" height="92" stroke="#DDCDB5" stroke-width="4"/>
<rect x="823" y="325" width="50" height="50" stroke="#DDCDB5" stroke-width="4"/>
<circle cx="988" cy="350" r="68" stroke="#DDCDB5" stroke-width="4"/>
<circle cx="988" cy="350" r="46" stroke="#DDCDB5" stroke-width="4"/>
<circle cx="988" cy="350" r="25" stroke="#DDCDB5" stroke-width="4"/>
<rect x="1060" y="282" width="136" height="136" stroke="#DDCDB5" stroke-width="4"/>
<rect x="1082" y="304" width="92" height="92" stroke="#DDCDB5" stroke-width="4"/>
<rect x="1103" y="325" width="50" height="50" stroke="#DDCDB5" stroke-width="4"/>
<circle cx="1268" cy="350" r="68" stroke="#DDCDB5" stroke-width="4"/>
<circle cx="1268" cy="350" r="46" stroke="#DDCDB5" stroke-width="4"/>
<circle cx="1268" cy="350" r="25" stroke="#DDCDB5" stroke-width="4"/>
<rect x="1340" y="282" width="136" height="136" stroke="#DDCDB5" stroke-width="4"/>
<rect x="1362" y="304" width="92" height="92" stroke="#DDCDB5" stroke-width="4"/>
<rect x="1383" y="325" width="50" height="50" stroke="#DDCDB5" stroke-width="4"/>
<circle cx="1548" cy="350" r="68" stroke="#DDCDB5" stroke-width="4"/>
<circle cx="1548" cy="350" r="46" stroke="#DDCDB5" stroke-width="4"/>
<circle cx="1548" cy="350" r="25" stroke="#DDCDB5" stroke-width="4"/>
<rect x="1620" y="282" width="136" height="136" stroke="#DDCDB5" stroke-width="4"/>
<rect x="1642" y="304" width="92" height="92" stroke="#DDCDB5" stroke-width="4"/>
<rect x="1663" y="325" width="50" height="50" stroke="#DDCDB5" stroke-width="4"/>
<circle cx="1828" cy="350" r="68" stroke="#DDCDB5" stroke-width="4"/>
<circle cx="1828" cy="350" r="46" stroke="#DDCDB5" stroke-width="4"/>
<circle cx="1828" cy="350" r="25" stroke="#DDCDB5" stroke-width="4"/>
<rect x="1900" y="282" width="136" height="136" stroke="#DDCDB5" stroke-width="4"/>
<circle cx="8" cy="210" r="68" stroke="#DDCDB5" stroke-width="4"/>
<circle cx="8" cy="210" r="46" stroke="#DDCDB5" stroke-width="4"/>
<circle cx="8" cy="210" r="25" stroke="#DDCDB5" stroke-width="4"/>
<rect x="80" y="142" width="136" height="136" stroke="#DDCDB5" stroke-width="4"/>
<rect x="102" y="164" width="92" height="92" stroke="#DDCDB5" stroke-width="4"/>
<rect x="123" y="185" width="50" height="50" stroke="#DDCDB5" stroke-width="4"/>
<circle cx="288" cy="210" r="68" stroke="#DDCDB5" stroke-width="4"/>
<circle cx="288" cy="210" r="46" stroke="#DDCDB5" stroke-width="4"/>
<circle cx="288" cy="210" r="25" stroke="#DDCDB5" stroke-width="4"/>
<rect x="360" y="142" width="136" height="136" stroke="#DDCDB5" stroke-width="4"/>
<rect x="382" y="164" width="92" height="92" stroke="#DDCDB5" stroke-width="4"/>
<rect x="403" y="185" width="50" height="50" stroke="#DDCDB5" stroke-width="4"/>
<circle cx="568" cy="210" r="68" stroke="#DDCDB5" stroke-width="4"/>
<circle cx="568" cy="210" r="46" stroke="#DDCDB5" stroke-width="4"/>
<circle cx="568" cy="210" r="25" stroke="#DDCDB5" stroke-width="4"/>
<rect x="640" y="142" width="136" height="136" stroke="#DDCDB5" stroke-width="4"/>
<rect x="662" y="164" width="92" height="92" stroke="#DDCDB5" stroke-width="4"/>
<rect x="683" y="185" width="50" height="50" stroke="#DDCDB5" stroke-width="4"/>
<circle cx="848" cy="210" r="68" stroke="#DDCDB5" stroke-width="4"/>
<circle cx="848" cy="210" r="46" stroke="#DDCDB5" stroke-width="4"/>
<circle cx="848" cy="210" r="25" stroke="#DDCDB5" stroke-width="4"/>
<rect x="920" y="142" width="136" height="136" stroke="#DDCDB5" stroke-width="4"/>
<rect x="942" y="164" width="92" height="92" stroke="#DDCDB5" stroke-width="4"/>
<rect x="963" y="185" width="50" height="50" stroke="#DDCDB5" stroke-width="4"/>
<circle cx="1128" cy="210" r="68" stroke="#DDCDB5" stroke-width="4"/>
<circle cx="1128" cy="210" r="46" stroke="#DDCDB5" stroke-width="4"/>
<circle cx="1128" cy="210" r="25" stroke="#DDCDB5" stroke-width="4"/>
<rect x="1200" y="142" width="136" height="136" stroke="#DDCDB5" stroke-width="4"/>
<rect x="1222" y="164" width="92" height="92" stroke="#DDCDB5" stroke-width="4"/>
<rect x="1243" y="185" width="50" height="50" stroke="#DDCDB5" stroke-width="4"/>
<circle cx="1408" cy="210" r="68" stroke="#DDCDB5" stroke-width="4"/>
<circle cx="1408" cy="210" r="46" stroke="#DDCDB5" stroke-width="4"/>
<circle cx="1408" cy="210" r="25" stroke="#DDCDB5" stroke-width="4"/>
<rect x="1480" y="142" width="136" height="136" stroke="#DDCDB5" stroke-width="4"/>
<rect x="1502" y="164" width="92" height="92" stroke="#DDCDB5" stroke-width="4"/>
<rect x="1523" y="185" width="50" height="50" stroke="#DDCDB5" stroke-width="4"/>
<circle cx="1688" cy="210" r="68" stroke="#DDCDB5" stroke-width="4"/>
<circle cx="1688" cy="210" r="46" stroke="#DDCDB5" stroke-width="4"/>
<circle cx="1688" cy="210" r="25" stroke="#DDCDB5" stroke-width="4"/>
<rect x="1760" y="142" width="136" height="136" stroke="#DDCDB5" stroke-width="4"/>
<rect x="1782" y="164" width="92" height="92" stroke="#DDCDB5" stroke-width="4"/>
<rect x="1803" y="185" width="50" height="50" stroke="#DDCDB5" stroke-width="4"/>
<circle cx="1968" cy="210" r="68" stroke="#DDCDB5" stroke-width="4"/>
</svg>
